<?xml version="1.0" encoding="utf-8"?>
<!-- Generator: Adobe Illustrator 24.0.1, SVG Export Plug-In . SVG Version: 6.00 Build 0)  -->
<svg version="1.1" id="Layer_1" xmlns="http://www.w3.org/2000/svg" xmlns:xlink="http://www.w3.org/1999/xlink" x="0px" y="0px"
	 viewBox="0 0 95.77 36.25" style="enable-background:new 0 0 95.77 36.25;" xml:space="preserve">
<style type="text/css">
	.st0{fill:#1D1916;}
	.st1{fill:#C2AA91;}
</style>
<rect class="st0" width="95.77" height="36.25"/>
<g>
	<g>
		<path class="st1" d="M37.5,17.27c-0.34-1.33-1.09-2.38-2.26-3.11c-0.87-0.55-1.83-0.82-2.85-0.93c-1.62-0.16-3.08,0.27-4.38,1.23
			c-0.07,0.05-0.14,0.1-0.23,0.18v-1.28h-1.67v15.77h1.66v-5.7c0.04,0.01,0.05,0.02,0.06,0.02c0.03,0.03,0.06,0.05,0.09,0.08
			c0.52,0.45,1.1,0.79,1.75,0.99c1.75,0.55,3.46,0.38,5.11-0.39c1.32-0.62,2.2-1.66,2.63-3.05C37.81,19.82,37.83,18.54,37.5,17.27z
			 M35.97,19.89c-0.12,1.07-0.46,2.05-1.12,2.9c-0.97,1.24-2.26,1.74-3.81,1.61c-0.78-0.07-1.51-0.3-2.12-0.81
			c-0.49-0.41-0.83-0.92-1.12-1.48c-0.03-0.06-0.03-0.15-0.03-0.22c0-1.02,0-2.03,0-3.05c0-0.98,0-1.96,0-2.94
			c0-0.2,0.05-0.36,0.15-0.53c0.36-0.61,0.87-1.04,1.52-1.32c0.95-0.41,1.94-0.52,2.95-0.35c1.25,0.21,2.16,0.93,2.8,2.01
			C35.94,17,36.14,18.41,35.97,19.89z"/>
		<path class="st1" d="M75.39,13.13c-3.34,0-5.84,2.52-5.84,5.87c0,3.33,2.51,5.81,5.85,5.79c3.35-0.02,5.82-2.48,5.81-5.8
			C81.21,15.63,78.72,13.12,75.39,13.13z M77.86,23.66c-0.17,0.06-0.35,0.11-0.52,0.15c-0.23,0.04-0.45,0.05-0.58,0.07
			c-1.01-0.02-1.82-0.31-2.59-0.76c-1.47-0.88-2.62-2.08-3.33-3.65c-0.4-0.88-0.54-1.8-0.26-2.75c0.61-2.07,2.75-3.15,4.82-2.44
			c1.07,0.37,1.97,1.01,2.77,1.8c0.82,0.8,1.48,1.72,1.86,2.81C80.75,20.9,79.82,22.93,77.86,23.66z"/>
		<path class="st1" d="M48.74,17.6c0-0.5-0.07-1.01-0.18-1.5c-0.19-0.91-0.65-1.67-1.47-2.17c-0.59-0.36-1.24-0.52-1.92-0.6
			c-1.32-0.16-2.61-0.08-3.87,0.4c-0.8,0.3-1.51,0.73-2.08,1.38c-0.04,0.04-0.07,0.13-0.06,0.18c0.05,0.14,0.13,0.27,0.18,0.37
			c0.23-0.24,0.43-0.52,0.69-0.72c1.35-1.05,2.87-1.46,4.56-1.19c0.63,0.1,1.21,0.32,1.64,0.81c0.73,0.84,0.76,1.87,0.81,2.91
			c-0.06,0.01-0.09,0.01-0.13,0.02c-0.83,0.07-1.66,0.12-2.49,0.2c-1.14,0.11-2.25,0.33-3.32,0.74c-0.83,0.32-1.59,0.76-2.18,1.45
			c-1.14,1.34-1.06,3.95,1.31,4.73c0.76,0.25,1.53,0.29,2.31,0.2c1.57-0.19,2.97-0.76,4.2-1.75c0.09-0.07,0.17-0.15,0.29-0.25v1.81
			h1.69V24.5C48.74,22.2,48.75,19.9,48.74,17.6z M46.92,22.37c-1,0.95-2.15,1.62-3.53,1.85c-0.61,0.1-1.22,0.12-1.81-0.08
			c-0.86-0.28-1.4-0.86-1.58-1.74c-0.19-0.91-0.12-1.78,0.42-2.57c0.41-0.59,1-0.95,1.65-1.21c0.76-0.3,1.57-0.46,2.38-0.54
			c0.78-0.08,1.56-0.12,2.33-0.18c0.08-0.01,0.16,0,0.27,0v0.19c0,1.33,0,2.65,0,3.98C47.06,22.19,47.01,22.28,46.92,22.37z"/>
		<path class="st1" d="M25.01,21.51c-0.09,1.46-0.96,2.32-2.26,2.8c-1.18,0.43-2.41,0.51-3.65,0.42c-1.25-0.08-2.42-0.44-3.47-1.15
			c-0.36-0.25-0.67-0.57-1.01-0.85c-0.09-0.08-0.09-0.16-0.05-0.26c0.05-0.14,0.09-0.28,0.15-0.43c0.03,0.03,0.06,0.05,0.08,0.07
			c0.9,1.19,2.13,1.84,3.57,2.08c1.24,0.21,2.48,0.18,3.69-0.2c0.61-0.19,1.13-0.51,1.46-1.09c0.22-0.39,0.29-0.81,0.22-1.24
			c-0.08-0.5-0.43-0.8-0.86-1.02c-0.58-0.3-1.21-0.43-1.85-0.55c-1.01-0.19-2.02-0.36-3.03-0.57c-0.72-0.15-1.39-0.4-2.02-0.8
			c-1.51-0.96-1.62-3.16-0.3-4.29c0.65-0.56,1.42-0.87,2.25-1.03c1.45-0.28,2.89-0.28,4.31,0.19c0.84,0.28,1.58,0.74,2.2,1.38
			c0.08,0.08,0.11,0.15,0.06,0.26c-0.06,0.14-0.1,0.28-0.16,0.46c-0.44-0.58-0.94-1.04-1.55-1.36c-0.67-0.36-1.39-0.54-2.13-0.62
			c-0.95-0.09-1.9-0.07-2.84,0.16c-0.51,0.13-0.98,0.33-1.36,0.7c-0.85,0.82-0.67,2.11,0.36,2.67c0.61,0.33,1.28,0.49,1.95,0.62
			c1.09,0.22,2.18,0.41,3.26,0.64c0.71,0.16,1.39,0.41,1.99,0.86C24.77,19.9,25.07,20.63,25.01,21.51z"/>
		<path class="st1" d="M59.43,14.68c-0.07,0.12-0.12,0.24-0.19,0.37c-0.21-0.19-0.4-0.38-0.61-0.55c-0.79-0.68-1.74-0.83-2.74-0.78
			c-2.18,0.13-4,1.79-4.31,4.07c-0.03,0.18-0.04,0.36-0.04,0.54c0,2.02,0,4.04,0,6.06v0.22h-1.66V13.36h1.66v2.94
			c0.15-0.27,0.27-0.52,0.42-0.75c0.81-1.24,1.98-1.95,3.42-2.2c1-0.18,1.99-0.12,2.93,0.33c0.41,0.2,0.76,0.46,1.08,0.78
			C59.47,14.54,59.49,14.59,59.43,14.68z"/>
		<path class="st1" d="M70.21,14.57c-0.08,0.15-0.15,0.31-0.23,0.47c-0.21-0.19-0.4-0.38-0.61-0.55c-0.78-0.68-1.72-0.84-2.71-0.77
			c-2.27,0.15-4.02,1.8-4.34,4.05c-0.03,0.2-0.04,0.4-0.04,0.6c0,2.01,0,4.02,0,6.03v0.22h-1.66V13.35h1.65v2.91
			c0.01,0,0.02,0.01,0.03,0.01c0.02-0.03,0.04-0.07,0.06-0.1c0.77-1.6,2.06-2.51,3.78-2.82c1-0.18,1.99-0.11,2.92,0.34
			C69.52,13.91,69.97,14.25,70.21,14.57z"/>
	</g>
</g>
</svg>
